<svg xmlns="http://www.w3.org/2000/svg" xmlns:xlink="http://www.w3.org/1999/xlink" width="1066pt" height="1587pt" viewBox="0.00 0.00 1066.00 1587.00">
<g id="graph0" class="graph" transform="scale(1 1) rotate(0) translate(4 1583.2)">
<title>ProductSystemERD</title>
<polygon fill="white" stroke="none" points="-4,4 -4,-1583.2 1061.84,-1583.2 1061.84,4 -4,4"/>
<!-- VENDOR -->
<g id="node1" class="node">
<title>VENDOR</title>
<polygon fill="#e6e6fa" stroke="black" points="475.57,-1293.6 366.19,-1293.6 366.19,-1101.6 475.57,-1101.6 475.57,-1293.6"/>
<text xml:space="preserve" text-anchor="middle" x="420.88" y="-1277" font-family="Helvetica,sans-Serif" font-size="14.00">VENDOR</text>
<text xml:space="preserve" text-anchor="middle" x="420.88" y="-1244.2" font-family="Helvetica,sans-Serif" font-size="14.00">vendor_id (PK)</text>
<text xml:space="preserve" text-anchor="middle" x="420.88" y="-1227.4" font-family="Helvetica,sans-Serif" font-size="14.00">name</text>
<text xml:space="preserve" text-anchor="middle" x="420.88" y="-1210.6" font-family="Helvetica,sans-Serif" font-size="14.00">contact_email</text>
<text xml:space="preserve" text-anchor="middle" x="420.88" y="-1193.8" font-family="Helvetica,sans-Serif" font-size="14.00">public_key</text>
<text xml:space="preserve" text-anchor="middle" x="420.88" y="-1177" font-family="Helvetica,sans-Serif" font-size="14.00">description</text>
<text xml:space="preserve" text-anchor="middle" x="420.88" y="-1160.2" font-family="Helvetica,sans-Serif" font-size="14.00">address</text>
<text xml:space="preserve" text-anchor="middle" x="420.88" y="-1143.4" font-family="Helvetica,sans-Serif" font-size="14.00">status</text>
<text xml:space="preserve" text-anchor="middle" x="420.88" y="-1126.6" font-family="Helvetica,sans-Serif" font-size="14.00">created_at</text>
<text xml:space="preserve" text-anchor="middle" x="420.88" y="-1109.8" font-family="Helvetica,sans-Serif" font-size="14.00">updated_at</text>
</g>
<!-- MANUFACTURES -->
<g id="node9" class="node">
<title>MANUFACTURES</title>
<polygon fill="#f4c2c2" stroke="black" points="430.88,-1048.8 301.47,-1030.8 430.88,-1012.8 560.3,-1030.8 430.88,-1048.8"/>
<text xml:space="preserve" text-anchor="middle" x="430.88" y="-1026.6" font-family="Helvetica,sans-Serif" font-size="14.00">MANUFACTURES</text>
</g>
<!-- VENDOR&#45;&gt;MANUFACTURES -->
<g id="edge1" class="edge">
<title>VENDOR-&gt;MANUFACTURES</title>
<path fill="none" stroke="black" d="M426.67,-1101.21C427.89,-1081.14 429.04,-1062.12 429.83,-1049.09"/>
<text xml:space="preserve" text-anchor="middle" x="432.22" y="-1071" font-family="Times,serif" font-size="14.00">1</text>
</g>
<!-- PRODUCT -->
<g id="node2" class="node">
<title>PRODUCT</title>
<polygon fill="#ddeeff" stroke="black" points="520.52,-960 407.25,-960 407.25,-818.4 520.52,-818.4 520.52,-960"/>
<text xml:space="preserve" text-anchor="middle" x="463.88" y="-943.4" font-family="Helvetica,sans-Serif" font-size="14.00">PRODUCT</text>
<text xml:space="preserve" text-anchor="middle" x="463.88" y="-910.6" font-family="Helvetica,sans-Serif" font-size="14.00">product_id (PK)</text>
<text xml:space="preserve" text-anchor="middle" x="463.88" y="-893.8" font-family="Helvetica,sans-Serif" font-size="14.00">vendor_id (FK)</text>
<text xml:space="preserve" text-anchor="middle" x="463.88" y="-877" font-family="Helvetica,sans-Serif" font-size="14.00">model_code</text>
<text xml:space="preserve" text-anchor="middle" x="463.88" y="-860.2" font-family="Helvetica,sans-Serif" font-size="14.00">name</text>
<text xml:space="preserve" text-anchor="middle" x="463.88" y="-843.4" font-family="Helvetica,sans-Serif" font-size="14.00">category</text>
<text xml:space="preserve" text-anchor="middle" x="463.88" y="-826.6" font-family="Helvetica,sans-Serif" font-size="14.00">status</text>
</g>
<!-- HAS_INSTANCES -->
<g id="node10" class="node">
<title>HAS_INSTANCES</title>
<polygon fill="#f4c2c2" stroke="black" points="481.88,-765.6 352.44,-747.6 481.88,-729.6 611.33,-747.6 481.88,-765.6"/>
<text xml:space="preserve" text-anchor="middle" x="481.88" y="-743.4" font-family="Helvetica,sans-Serif" font-size="14.00">HAS_INSTANCES</text>
</g>
<!-- PRODUCT&#45;&gt;HAS_INSTANCES -->
<g id="edge3" class="edge">
<title>PRODUCT-&gt;HAS_INSTANCES</title>
<path fill="none" stroke="black" d="M472.94,-817.99C475.46,-798.44 477.97,-778.93 479.69,-765.6"/>
<text xml:space="preserve" text-anchor="middle" x="480.56" y="-787.8" font-family="Times,serif" font-size="14.00">1</text>
</g>
<!-- PRODUCT_SERIAL -->
<g id="node3" class="node">
<title>PRODUCT_SERIAL</title>
<polygon fill="#e8f6f3" stroke="black" points="555.29,-676.8 412.48,-676.8 412.48,-552 555.29,-552 555.29,-676.8"/>
<text xml:space="preserve" text-anchor="middle" x="483.88" y="-660.2" font-family="Helvetica,sans-Serif" font-size="14.00">PRODUCT_SERIAL</text>
<text xml:space="preserve" text-anchor="middle" x="483.88" y="-627.4" font-family="Helvetica,sans-Serif" font-size="14.00">serial_id (PK)</text>
<text xml:space="preserve" text-anchor="middle" x="483.88" y="-610.6" font-family="Helvetica,sans-Serif" font-size="14.00">product_id (FK)</text>
<text xml:space="preserve" text-anchor="middle" x="483.88" y="-593.8" font-family="Helvetica,sans-Serif" font-size="14.00">serial_hash</text>
<text xml:space="preserve" text-anchor="middle" x="483.88" y="-577" font-family="Helvetica,sans-Serif" font-size="14.00">manufacture_date</text>
<text xml:space="preserve" text-anchor="middle" x="483.88" y="-560.2" font-family="Helvetica,sans-Serif" font-size="14.00">status</text>
</g>
<!-- COVERED_BY -->
<g id="node11" class="node">
<title>COVERED_BY</title>
<polygon fill="#f4c2c2" stroke="black" points="948.88,-499.2 839.92,-481.2 948.88,-463.2 1057.84,-481.2 948.88,-499.2"/>
<text xml:space="preserve" text-anchor="middle" x="948.88" y="-477" font-family="Helvetica,sans-Serif" font-size="14.00">COVERED_BY</text>
</g>
<!-- PRODUCT_SERIAL&#45;&gt;COVERED_BY -->
<g id="edge5" class="edge">
<title>PRODUCT_SERIAL-&gt;COVERED_BY</title>
<path fill="none" stroke="black" d="M555.78,-593.12C655.32,-565.03 831.7,-515.26 909.8,-493.23"/>
<text xml:space="preserve" text-anchor="middle" x="827.67" y="-521.4" font-family="Times,serif" font-size="14.00">1</text>
</g>
<!-- CURRENTLY_OWNED_BY -->
<g id="node12" class="node">
<title>CURRENTLY_OWNED_BY</title>
<polygon fill="#f4c2c2" stroke="black" points="270.88,-499.2 86.05,-481.2 270.88,-463.2 455.72,-481.2 270.88,-499.2"/>
<text xml:space="preserve" text-anchor="middle" x="270.88" y="-477" font-family="Helvetica,sans-Serif" font-size="14.00">CURRENTLY_OWNED_BY</text>
</g>
<!-- PRODUCT_SERIAL&#45;&gt;CURRENTLY_OWNED_BY -->
<g id="edge7" class="edge">
<title>PRODUCT_SERIAL-&gt;CURRENTLY_OWNED_BY</title>
<path fill="none" stroke="black" d="M412.07,-569.16C371.61,-544.24 323.65,-514.7 295.33,-497.26"/>
<text xml:space="preserve" text-anchor="middle" x="357.1" y="-521.4" font-family="Times,serif" font-size="14.00">N</text>
</g>
<!-- TRACKED_IN -->
<g id="node14" class="node">
<title>TRACKED_IN</title>
<polygon fill="#f4c2c2" stroke="black" points="447.88,-445.2 345.77,-427.2 447.88,-409.2 550,-427.2 447.88,-445.2"/>
<text xml:space="preserve" text-anchor="middle" x="447.88" y="-423" font-family="Helvetica,sans-Serif" font-size="14.00">TRACKED_IN</text>
</g>
<!-- PRODUCT_SERIAL&#45;&gt;TRACKED_IN -->
<g id="edge11" class="edge">
<title>PRODUCT_SERIAL-&gt;TRACKED_IN</title>
<path fill="none" stroke="black" d="M480.64,-551.81C478.04,-524.27 473.35,-491.67 464.88,-463.2 462.92,-456.6 459.82,-449.7 456.81,-443.79"/>
<text xml:space="preserve" text-anchor="middle" x="482.07" y="-521.4" font-family="Times,serif" font-size="14.00">1</text>
</g>
<!-- VERIFIED_THROUGH -->
<g id="node15" class="node">
<title>VERIFIED_THROUGH</title>
<polygon fill="#f4c2c2" stroke="black" points="666.88,-499.2 511.66,-481.2 666.88,-463.2 822.11,-481.2 666.88,-499.2"/>
<text xml:space="preserve" text-anchor="middle" x="666.88" y="-477" font-family="Helvetica,sans-Serif" font-size="14.00">VERIFIED_THROUGH</text>
</g>
<!-- PRODUCT_SERIAL&#45;&gt;VERIFIED_THROUGH -->
<g id="edge13" class="edge">
<title>PRODUCT_SERIAL-&gt;VERIFIED_THROUGH</title>
<path fill="none" stroke="black" d="M555.69,-561.92C588.13,-538.66 624.04,-512.92 646.04,-497.14"/>
<text xml:space="preserve" text-anchor="middle" x="621.3" y="-521.4" font-family="Times,serif" font-size="14.00">1</text>
</g>
<!-- WARRANTY -->
<g id="node4" class="node">
<title>WARRANTY</title>
<polygon fill="#fdebd0" stroke="black" points="1009.01,-391.2 888.76,-391.2 888.76,-266.4 1009.01,-266.4 1009.01,-391.2"/>
<text xml:space="preserve" text-anchor="middle" x="948.88" y="-374.6" font-family="Helvetica,sans-Serif" font-size="14.00">WARRANTY</text>
<text xml:space="preserve" text-anchor="middle" x="948.88" y="-341.8" font-family="Helvetica,sans-Serif" font-size="14.00">warranty_id (PK)</text>
<text xml:space="preserve" text-anchor="middle" x="948.88" y="-325" font-family="Helvetica,sans-Serif" font-size="14.00">serial_id (FK)</text>
<text xml:space="preserve" text-anchor="middle" x="948.88" y="-308.2" font-family="Helvetica,sans-Serif" font-size="14.00">warranty_start</text>
<text xml:space="preserve" text-anchor="middle" x="948.88" y="-291.4" font-family="Helvetica,sans-Serif" font-size="14.00">warranty_end</text>
<text xml:space="preserve" text-anchor="middle" x="948.88" y="-274.6" font-family="Helvetica,sans-Serif" font-size="14.00">status</text>
</g>
<!-- OWNER -->
<g id="node5" class="node">
<title>OWNER</title>
<polygon fill="#e8daef" stroke="black" points="327.52,-382.8 214.25,-382.8 214.25,-274.8 327.52,-274.8 327.52,-382.8"/>
<text xml:space="preserve" text-anchor="middle" x="270.88" y="-366.2" font-family="Helvetica,sans-Serif" font-size="14.00">OWNER</text>
<text xml:space="preserve" text-anchor="middle" x="270.88" y="-333.4" font-family="Helvetica,sans-Serif" font-size="14.00">owner_id (PK)</text>
<text xml:space="preserve" text-anchor="middle" x="270.88" y="-316.6" font-family="Helvetica,sans-Serif" font-size="14.00">name</text>
<text xml:space="preserve" text-anchor="middle" x="270.88" y="-299.8" font-family="Helvetica,sans-Serif" font-size="14.00">identity_verified</text>
<text xml:space="preserve" text-anchor="middle" x="270.88" y="-283" font-family="Helvetica,sans-Serif" font-size="14.00">status</text>
</g>
<!-- HAS_HISTORY -->
<g id="node13" class="node">
<title>HAS_HISTORY</title>
<polygon fill="#f4c2c2" stroke="black" points="297.88,-213.6 185.9,-195.6 297.88,-177.6 409.87,-195.6 297.88,-213.6"/>
<text xml:space="preserve" text-anchor="middle" x="297.88" y="-191.4" font-family="Helvetica,sans-Serif" font-size="14.00">HAS_HISTORY</text>
</g>
<!-- OWNER&#45;&gt;HAS_HISTORY -->
<g id="edge9" class="edge">
<title>OWNER-&gt;HAS_HISTORY</title>
<path fill="none" stroke="black" d="M281.87,-274.44C286.36,-252.59 291.25,-228.86 294.42,-213.42"/>
<text xml:space="preserve" text-anchor="middle" x="294.14" y="-235.8" font-family="Times,serif" font-size="14.00">1</text>
</g>
<!-- OWNERSHIP_HISTORY -->
<g id="node6" class="node">
<title>OWNERSHIP_HISTORY</title>
<polygon fill="#f9ebea" stroke="black" points="459.06,-124.8 286.71,-124.8 286.71,0 459.06,0 459.06,-124.8"/>
<text xml:space="preserve" text-anchor="middle" x="372.88" y="-108.2" font-family="Helvetica,sans-Serif" font-size="14.00">OWNERSHIP_HISTORY</text>
<text xml:space="preserve" text-anchor="middle" x="372.88" y="-75.4" font-family="Helvetica,sans-Serif" font-size="14.00">relationship_id (PK)</text>
<text xml:space="preserve" text-anchor="middle" x="372.88" y="-58.6" font-family="Helvetica,sans-Serif" font-size="14.00">serial_id (FK)</text>
<text xml:space="preserve" text-anchor="middle" x="372.88" y="-41.8" font-family="Helvetica,sans-Serif" font-size="14.00">owner_id (FK)</text>
<text xml:space="preserve" text-anchor="middle" x="372.88" y="-25" font-family="Helvetica,sans-Serif" font-size="14.00">acquired_at</text>
<text xml:space="preserve" text-anchor="middle" x="372.88" y="-8.2" font-family="Helvetica,sans-Serif" font-size="14.00">relinquished_at</text>
</g>
<!-- AUTHENTICITY_CHECK -->
<g id="node7" class="node">
<title>AUTHENTICITY_CHECK</title>
<polygon fill="#fcf3cf" stroke="black" points="754.23,-382.8 579.54,-382.8 579.54,-274.8 754.23,-274.8 754.23,-382.8"/>
<text xml:space="preserve" text-anchor="middle" x="666.88" y="-366.2" font-family="Helvetica,sans-Serif" font-size="14.00">AUTHENTICITY_CHECK</text>
<text xml:space="preserve" text-anchor="middle" x="666.88" y="-333.4" font-family="Helvetica,sans-Serif" font-size="14.00">check_id (PK)</text>
<text xml:space="preserve" text-anchor="middle" x="666.88" y="-316.6" font-family="Helvetica,sans-Serif" font-size="14.00">serial_hash</text>
<text xml:space="preserve" text-anchor="middle" x="666.88" y="-299.8" font-family="Helvetica,sans-Serif" font-size="14.00">checked_at</text>
<text xml:space="preserve" text-anchor="middle" x="666.88" y="-283" font-family="Helvetica,sans-Serif" font-size="14.00">verification_result</text>
</g>
<!-- USER -->
<g id="node8" class="node">
<title>USER</title>
<polygon fill="#d5f5e3" stroke="black" points="340.81,-1579.2 218.96,-1579.2 218.96,-1454.4 340.81,-1454.4 340.81,-1579.2"/>
<text xml:space="preserve" text-anchor="middle" x="279.88" y="-1562.6" font-family="Helvetica,sans-Serif" font-size="14.00">USER</text>
<text xml:space="preserve" text-anchor="middle" x="279.88" y="-1529.8" font-family="Helvetica,sans-Serif" font-size="14.00">_id (PK)</text>
<text xml:space="preserve" text-anchor="middle" x="279.88" y="-1513" font-family="Helvetica,sans-Serif" font-size="14.00">email</text>
<text xml:space="preserve" text-anchor="middle" x="279.88" y="-1496.2" font-family="Helvetica,sans-Serif" font-size="14.00">role</text>
<text xml:space="preserve" text-anchor="middle" x="279.88" y="-1479.4" font-family="Helvetica,sans-Serif" font-size="14.00">linked_vendor_id</text>
<text xml:space="preserve" text-anchor="middle" x="279.88" y="-1462.6" font-family="Helvetica,sans-Serif" font-size="14.00">linked_owner_id</text>
</g>
<!-- LINKED_VENDOR -->
<g id="node16" class="node">
<title>LINKED_VENDOR</title>
<polygon fill="#f4c2c2" stroke="black" points="420.88,-1401.6 289.92,-1383.6 420.88,-1365.6 551.85,-1383.6 420.88,-1401.6"/>
<text xml:space="preserve" text-anchor="middle" x="420.88" y="-1379.4" font-family="Helvetica,sans-Serif" font-size="14.00">LINKED_VENDOR</text>
</g>
<!-- USER&#45;&gt;LINKED_VENDOR -->
<g id="edge15" class="edge">
<title>USER-&gt;LINKED_VENDOR</title>
<path fill="none" stroke="black" d="M340.91,-1459.02C364.28,-1437.27 389.06,-1414.21 404.74,-1399.62"/>
<text xml:space="preserve" text-anchor="middle" x="393.57" y="-1423.8" font-family="Times,serif" font-size="14.00">0..1</text>
</g>
<!-- LINKED_OWNER -->
<g id="node17" class="node">
<title>LINKED_OWNER</title>
<polygon fill="#f4c2c2" stroke="black" points="124.88,-1347.6 0,-1329.6 124.88,-1311.6 249.77,-1329.6 124.88,-1347.6"/>
<text xml:space="preserve" text-anchor="middle" x="124.88" y="-1325.4" font-family="Helvetica,sans-Serif" font-size="14.00">LINKED_OWNER</text>
</g>
<!-- USER&#45;&gt;LINKED_OWNER -->
<g id="edge17" class="edge">
<title>USER-&gt;LINKED_OWNER</title>
<path fill="none" stroke="black" d="M228.27,-1454.13C196.22,-1415.83 157.48,-1369.55 137.77,-1346"/>
<text xml:space="preserve" text-anchor="middle" x="222.82" y="-1423.8" font-family="Times,serif" font-size="14.00">0..1</text>
</g>
<!-- MANUFACTURES&#45;&gt;PRODUCT -->
<g id="edge2" class="edge">
<title>MANUFACTURES-&gt;PRODUCT</title>
<path fill="none" stroke="black" d="M434.86,-1012.96C438.02,-999.62 442.65,-980.01 447.3,-960.36"/>
<text xml:space="preserve" text-anchor="middle" x="447.56" y="-982.2" font-family="Times,serif" font-size="14.00">N</text>
</g>
<!-- HAS_INSTANCES&#45;&gt;PRODUCT_SERIAL -->
<g id="edge4" class="edge">
<title>HAS_INSTANCES-&gt;PRODUCT_SERIAL</title>
<path fill="none" stroke="black" d="M482.15,-729.18C482.35,-715.72 482.65,-696.25 482.94,-677.2"/>
<text xml:space="preserve" text-anchor="middle" x="487.7" y="-699" font-family="Times,serif" font-size="14.00">N</text>
</g>
<!-- COVERED_BY&#45;&gt;WARRANTY -->
<g id="edge6" class="edge">
<title>COVERED_BY-&gt;WARRANTY</title>
<path fill="none" stroke="black" d="M948.88,-462.95C948.88,-445.51 948.88,-417.52 948.88,-391.7"/>
<text xml:space="preserve" text-anchor="middle" x="952.38" y="-423" font-family="Times,serif" font-size="14.00">1</text>
</g>
<!-- CURRENTLY_OWNED_BY&#45;&gt;OWNER -->
<g id="edge8" class="edge">
<title>CURRENTLY_OWNED_BY-&gt;OWNER</title>
<path fill="none" stroke="black" d="M270.88,-462.95C270.88,-443.58 270.88,-411.2 270.88,-383.23"/>
<text xml:space="preserve" text-anchor="middle" x="274.38" y="-423" font-family="Times,serif" font-size="14.00">1</text>
</g>
<!-- HAS_HISTORY&#45;&gt;OWNERSHIP_HISTORY -->
<g id="edge10" class="edge">
<title>HAS_HISTORY-&gt;OWNERSHIP_HISTORY</title>
<path fill="none" stroke="black" d="M306.93,-178.77C314.64,-165.28 326.26,-144.97 337.6,-125.13"/>
<text xml:space="preserve" text-anchor="middle" x="331.52" y="-147" font-family="Times,serif" font-size="14.00">N</text>
</g>
<!-- TRACKED_IN&#45;&gt;OWNERSHIP_HISTORY -->
<g id="edge12" class="edge">
<title>TRACKED_IN-&gt;OWNERSHIP_HISTORY</title>
<path fill="none" stroke="black" d="M447.45,-409.04C446.08,-368.27 440.56,-262.66 418.88,-177.6 414.45,-160.2 407.97,-141.93 401.27,-125.22"/>
<text xml:space="preserve" text-anchor="middle" x="437.99" y="-235.8" font-family="Times,serif" font-size="14.00">N</text>
</g>
<!-- VERIFIED_THROUGH&#45;&gt;AUTHENTICITY_CHECK -->
<g id="edge14" class="edge">
<title>VERIFIED_THROUGH-&gt;AUTHENTICITY_CHECK</title>
<path fill="none" stroke="black" d="M666.88,-462.95C666.88,-443.58 666.88,-411.2 666.88,-383.23"/>
<text xml:space="preserve" text-anchor="middle" x="671.94" y="-423" font-family="Times,serif" font-size="14.00">N</text>
</g>
<!-- LINKED_VENDOR&#45;&gt;VENDOR -->
<g id="edge16" class="edge">
<title>LINKED_VENDOR-&gt;VENDOR</title>
<path fill="none" stroke="black" d="M420.88,-1365.29C420.88,-1348.38 420.88,-1321.24 420.88,-1293.73"/>
<text xml:space="preserve" text-anchor="middle" x="431.38" y="-1325.4" font-family="Times,serif" font-size="14.00">0..1</text>
</g>
<!-- LINKED_OWNER&#45;&gt;OWNER -->
<g id="edge18" class="edge">
<title>LINKED_OWNER-&gt;OWNER</title>
<path fill="none" stroke="black" d="M117.46,-1312.46C100.01,-1273.02 57.88,-1168.23 57.88,-1076.2 57.88,-1076.2 57.88,-1076.2 57.88,-480.2 57.88,-403.7 150.71,-362.66 213.8,-343.6"/>
<text xml:space="preserve" text-anchor="middle" x="68.38" y="-787.8" font-family="Times,serif" font-size="14.00">0..1</text>
</g>
</g>
</svg>