<svg xmlns="http://www.w3.org/2000/svg" xmlns:xlink="http://www.w3.org/1999/xlink" width="1319pt" height="646pt" viewBox="0.00 0.00 1319.00 646.00">
<g id="graph0" class="graph" transform="scale(1 1) rotate(0) translate(4 642)">
<title>ProductSystemSchema</title>
<polygon fill="white" stroke="none" points="-4,4 -4,-642 1314.95,-642 1314.95,4 -4,4"/>
<!-- VENDOR -->
<g id="node1" class="node">
<title>VENDOR</title>
<polygon fill="none" stroke="black" points="1125.67,-142.5 1125.67,-234.5 1310.95,-234.5 1310.95,-142.5 1125.67,-142.5"/>
<text xml:space="preserve" text-anchor="middle" x="1163.62" y="-184.3" font-family="Helvetica,sans-Serif" font-size="14.00">VENDOR</text>
<polyline fill="none" stroke="black" points="1201.57,-142.5 1201.57,-234.5"/>
<text xml:space="preserve" text-anchor="start" x="1209.57" y="-217.9" font-family="Helvetica,sans-Serif" font-size="14.00">vendor_id (PK)</text>
<text xml:space="preserve" text-anchor="start" x="1209.57" y="-201.1" font-family="Helvetica,sans-Serif" font-size="14.00">name</text>
<text xml:space="preserve" text-anchor="start" x="1209.57" y="-184.3" font-family="Helvetica,sans-Serif" font-size="14.00">contact_email</text>
<text xml:space="preserve" text-anchor="start" x="1209.57" y="-167.5" font-family="Helvetica,sans-Serif" font-size="14.00">public_key</text>
<text xml:space="preserve" text-anchor="start" x="1209.57" y="-150.7" font-family="Helvetica,sans-Serif" font-size="14.00">status</text>
</g>
<!-- PRODUCT -->
<g id="node2" class="node">
<title>PRODUCT</title>
<polygon fill="none" stroke="black" points="812.18,-274.1 812.18,-382.9 1010.67,-382.9 1010.67,-274.1 812.18,-274.1"/>
<text xml:space="preserve" text-anchor="middle" x="854.79" y="-324.3" font-family="Helvetica,sans-Serif" font-size="14.00">PRODUCT</text>
<polyline fill="none" stroke="black" points="897.41,-274.1 897.41,-382.9"/>
<text xml:space="preserve" text-anchor="start" x="905.41" y="-366.3" font-family="Helvetica,sans-Serif" font-size="14.00">product_id (PK)</text>
<text xml:space="preserve" text-anchor="start" x="905.41" y="-349.5" font-family="Helvetica,sans-Serif" font-size="14.00">vendor_id (FK)</text>
<text xml:space="preserve" text-anchor="start" x="905.41" y="-332.7" font-family="Helvetica,sans-Serif" font-size="14.00">model_code</text>
<text xml:space="preserve" text-anchor="start" x="905.41" y="-315.9" font-family="Helvetica,sans-Serif" font-size="14.00">name</text>
<text xml:space="preserve" text-anchor="start" x="905.41" y="-299.1" font-family="Helvetica,sans-Serif" font-size="14.00">category</text>
<text xml:space="preserve" text-anchor="start" x="905.41" y="-282.3" font-family="Helvetica,sans-Serif" font-size="14.00">status</text>
</g>
<!-- PRODUCT&#45;&gt;VENDOR -->
<g id="edge1" class="edge">
<title>PRODUCT-&gt;VENDOR</title>
<path fill="none" stroke="black" d="M910.95,-273.69C910.95,-244.36 910.95,-214.2 910.95,-214.2 910.95,-214.2 1113.75,-214.2 1113.75,-214.2"/>
<polygon fill="black" stroke="black" points="1113.75,-217.7 1123.75,-214.2 1113.75,-210.7 1113.75,-217.7"/>
</g>
<!-- PRODUCT_SERIAL -->
<g id="node3" class="node">
<title>PRODUCT_SERIAL</title>
<polygon fill="none" stroke="black" points="425.52,-365.5 425.52,-457.5 697.18,-457.5 697.18,-365.5 425.52,-365.5"/>
<text xml:space="preserve" text-anchor="middle" x="496.93" y="-407.3" font-family="Helvetica,sans-Serif" font-size="14.00">PRODUCT_SERIAL</text>
<polyline fill="none" stroke="black" points="568.33,-365.5 568.33,-457.5"/>
<text xml:space="preserve" text-anchor="start" x="576.33" y="-440.9" font-family="Helvetica,sans-Serif" font-size="14.00">serial_id (PK)</text>
<text xml:space="preserve" text-anchor="start" x="576.33" y="-424.1" font-family="Helvetica,sans-Serif" font-size="14.00">product_id (FK)</text>
<text xml:space="preserve" text-anchor="start" x="576.33" y="-407.3" font-family="Helvetica,sans-Serif" font-size="14.00">serial_hash</text>
<text xml:space="preserve" text-anchor="start" x="576.33" y="-390.5" font-family="Helvetica,sans-Serif" font-size="14.00">manufacture_date</text>
<text xml:space="preserve" text-anchor="start" x="576.33" y="-373.7" font-family="Helvetica,sans-Serif" font-size="14.00">status</text>
</g>
<!-- PRODUCT_SERIAL&#45;&gt;PRODUCT -->
<g id="edge2" class="edge">
<title>PRODUCT_SERIAL-&gt;PRODUCT</title>
<path fill="none" stroke="black" d="M697.45,-374.2C697.45,-374.2 800.37,-374.2 800.37,-374.2"/>
<polygon fill="black" stroke="black" points="800.37,-377.7 810.37,-374.2 800.37,-370.7 800.37,-377.7"/>
</g>
<!-- WARRANTY -->
<g id="node4" class="node">
<title>WARRANTY</title>
<polygon fill="none" stroke="black" points="47.08,-545.5 47.08,-637.5 263.44,-637.5 263.44,-545.5 47.08,-545.5"/>
<text xml:space="preserve" text-anchor="middle" x="95.13" y="-587.3" font-family="Helvetica,sans-Serif" font-size="14.00">WARRANTY</text>
<polyline fill="none" stroke="black" points="143.19,-545.5 143.19,-637.5"/>
<text xml:space="preserve" text-anchor="start" x="151.19" y="-620.9" font-family="Helvetica,sans-Serif" font-size="14.00">warranty_id (PK)</text>
<text xml:space="preserve" text-anchor="start" x="151.19" y="-604.1" font-family="Helvetica,sans-Serif" font-size="14.00">serial_id (FK)</text>
<text xml:space="preserve" text-anchor="start" x="151.19" y="-587.3" font-family="Helvetica,sans-Serif" font-size="14.00">warranty_start</text>
<text xml:space="preserve" text-anchor="start" x="151.19" y="-570.5" font-family="Helvetica,sans-Serif" font-size="14.00">warranty_end</text>
<text xml:space="preserve" text-anchor="start" x="151.19" y="-553.7" font-family="Helvetica,sans-Serif" font-size="14.00">status</text>
</g>
<!-- WARRANTY&#45;&gt;PRODUCT_SERIAL -->
<g id="edge3" class="edge">
<title>WARRANTY-&gt;PRODUCT_SERIAL</title>
<path fill="none" stroke="black" d="M154.95,-545.05C154.95,-505.25 154.95,-454.3 154.95,-454.3 154.95,-454.3 413.67,-454.3 413.67,-454.3"/>
<polygon fill="black" stroke="black" points="413.67,-457.8 423.67,-454.3 413.67,-450.8 413.67,-457.8"/>
</g>
<!-- OWNER -->
<g id="node5" class="node">
<title>OWNER</title>
<polygon fill="none" stroke="black" points="469.89,-193.9 469.89,-269.1 652.82,-269.1 652.82,-193.9 469.89,-193.9"/>
<text xml:space="preserve" text-anchor="middle" x="504.72" y="-227.3" font-family="Helvetica,sans-Serif" font-size="14.00">OWNER</text>
<polyline fill="none" stroke="black" points="539.55,-193.9 539.55,-269.1"/>
<text xml:space="preserve" text-anchor="start" x="547.55" y="-252.5" font-family="Helvetica,sans-Serif" font-size="14.00">owner_id (PK)</text>
<text xml:space="preserve" text-anchor="start" x="547.55" y="-235.7" font-family="Helvetica,sans-Serif" font-size="14.00">name</text>
<text xml:space="preserve" text-anchor="start" x="547.55" y="-218.9" font-family="Helvetica,sans-Serif" font-size="14.00">identity_verified</text>
<text xml:space="preserve" text-anchor="start" x="547.55" y="-202.1" font-family="Helvetica,sans-Serif" font-size="14.00">status</text>
</g>
<!-- OWNERSHIP_HISTORY -->
<g id="node6" class="node">
<title>OWNERSHIP_HISTORY</title>
<polygon fill="none" stroke="black" points="0,-187.5 0,-279.5 310.52,-279.5 310.52,-187.5 0,-187.5"/>
<text xml:space="preserve" text-anchor="middle" x="86.18" y="-229.3" font-family="Helvetica,sans-Serif" font-size="14.00">OWNERSHIP_HISTORY</text>
<polyline fill="none" stroke="black" points="172.35,-187.5 172.35,-279.5"/>
<text xml:space="preserve" text-anchor="start" x="180.35" y="-262.9" font-family="Helvetica,sans-Serif" font-size="14.00">relationship_id (PK)</text>
<text xml:space="preserve" text-anchor="start" x="180.35" y="-246.1" font-family="Helvetica,sans-Serif" font-size="14.00">serial_id (FK)</text>
<text xml:space="preserve" text-anchor="start" x="180.35" y="-229.3" font-family="Helvetica,sans-Serif" font-size="14.00">owner_id (FK)</text>
<text xml:space="preserve" text-anchor="start" x="180.35" y="-212.5" font-family="Helvetica,sans-Serif" font-size="14.00">acquired_at</text>
<text xml:space="preserve" text-anchor="start" x="180.35" y="-195.7" font-family="Helvetica,sans-Serif" font-size="14.00">relinquished_at</text>
</g>
<!-- OWNERSHIP_HISTORY&#45;&gt;PRODUCT_SERIAL -->
<g id="edge4" class="edge">
<title>OWNERSHIP_HISTORY-&gt;PRODUCT_SERIAL</title>
<path fill="none" stroke="black" d="M310.6,-244.2C380.66,-244.2 447.95,-244.2 447.95,-244.2 447.95,-244.2 447.95,-353.83 447.95,-353.83"/>
<polygon fill="black" stroke="black" points="444.45,-353.83 447.95,-363.83 451.45,-353.83 444.45,-353.83"/>
</g>
<!-- OWNERSHIP_HISTORY&#45;&gt;OWNER -->
<g id="edge5" class="edge">
<title>OWNERSHIP_HISTORY-&gt;OWNER</title>
<path fill="none" stroke="black" d="M310.82,-218.8C310.82,-218.8 458.02,-218.8 458.02,-218.8"/>
<polygon fill="black" stroke="black" points="458.02,-222.3 468.02,-218.8 458.02,-215.3 458.02,-222.3"/>
</g>
<!-- AUTHENTICITY_CHECK -->
<g id="node7" class="node">
<title>AUTHENTICITY_CHECK</title>
<polygon fill="none" stroke="black" points="5.45,-374.9 5.45,-450.1 305.07,-450.1 305.07,-374.9 5.45,-374.9"/>
<text xml:space="preserve" text-anchor="middle" x="92.79" y="-408.3" font-family="Helvetica,sans-Serif" font-size="14.00">AUTHENTICITY_CHECK</text>
<polyline fill="none" stroke="black" points="180.13,-374.9 180.13,-450.1"/>
<text xml:space="preserve" text-anchor="start" x="188.13" y="-433.5" font-family="Helvetica,sans-Serif" font-size="14.00">check_id (PK)</text>
<text xml:space="preserve" text-anchor="start" x="188.13" y="-416.7" font-family="Helvetica,sans-Serif" font-size="14.00">serial_hash</text>
<text xml:space="preserve" text-anchor="start" x="188.13" y="-399.9" font-family="Helvetica,sans-Serif" font-size="14.00">checked_at</text>
<text xml:space="preserve" text-anchor="start" x="188.13" y="-383.1" font-family="Helvetica,sans-Serif" font-size="14.00">verification_result</text>
</g>
<!-- AUTHENTICITY_CHECK&#45;&gt;PRODUCT_SERIAL -->
<g id="edge8" class="edge">
<title>AUTHENTICITY_CHECK-&gt;PRODUCT_SERIAL</title>
<path fill="none" stroke="black" d="M305.32,-412.5C305.32,-412.5 413.82,-412.5 413.82,-412.5"/>
<polygon fill="black" stroke="black" points="413.82,-416 423.82,-412.5 413.82,-409 413.82,-416"/>
</g>
<!-- USER -->
<g id="node8" class="node">
<title>USER</title>
<polygon fill="none" stroke="black" points="51.33,-0.5 51.33,-92.5 259.19,-92.5 259.19,-0.5 51.33,-0.5"/>
<text xml:space="preserve" text-anchor="middle" x="78.78" y="-42.3" font-family="Helvetica,sans-Serif" font-size="14.00">USER</text>
<polyline fill="none" stroke="black" points="106.23,-0.5 106.23,-92.5"/>
<text xml:space="preserve" text-anchor="start" x="114.23" y="-75.9" font-family="Helvetica,sans-Serif" font-size="14.00">_id (PK)</text>
<text xml:space="preserve" text-anchor="start" x="114.23" y="-59.1" font-family="Helvetica,sans-Serif" font-size="14.00">email</text>
<text xml:space="preserve" text-anchor="start" x="114.23" y="-42.3" font-family="Helvetica,sans-Serif" font-size="14.00">role</text>
<text xml:space="preserve" text-anchor="start" x="114.23" y="-25.5" font-family="Helvetica,sans-Serif" font-size="14.00">linked_vendor_id (FK)</text>
<text xml:space="preserve" text-anchor="start" x="114.23" y="-8.7" font-family="Helvetica,sans-Serif" font-size="14.00">linked_owner_id (FK)</text>
</g>
<!-- USER&#45;&gt;VENDOR -->
<g id="edge6" class="edge">
<title>USER-&gt;VENDOR</title>
<path fill="none" stroke="black" d="M154.95,-92.8C154.95,-125.86 154.95,-164.5 154.95,-164.5 154.95,-164.5 1113.83,-164.5 1113.83,-164.5"/>
<polygon fill="black" stroke="black" points="1113.83,-168 1123.83,-164.5 1113.83,-161 1113.83,-168"/>
</g>
<!-- USER&#45;&gt;OWNER -->
<g id="edge7" class="edge">
<title>USER-&gt;OWNER</title>
<path fill="none" stroke="black" d="M259.47,-46.5C379.67,-46.5 560.95,-46.5 560.95,-46.5 560.95,-46.5 560.95,-182.1 560.95,-182.1"/>
<polygon fill="black" stroke="black" points="557.45,-182.1 560.95,-192.1 564.45,-182.1 557.45,-182.1"/>
</g>
</g>
</svg>